<svg xmlns="http://www.w3.org/2000/svg" viewBox="0 0 800 450">
  <defs><linearGradient id="s" x2="0" y2="1"><stop stop-color="#b8d2d0"/><stop offset="1" stop-color="#f2f6f5"/></linearGradient></defs><rect width="800" height="450" fill="url(#s)"/>
  <path d="M0 164q400-135 800 0v286H0z" fill="#173b45"/><path d="M42 192q358-102 716 0v186H42z" fill="#315d65"/><path d="M97 231q303-72 606 0v118H97z" fill="#edf5f3"/>
  <ellipse cx="400" cy="340" rx="280" ry="78" fill="#4d9a78"/><ellipse cx="400" cy="340" rx="215" ry="53" fill="none" stroke="#fff" stroke-width="5"/><path d="M400 287v106M185 340h430" stroke="#fff" stroke-width="4" opacity=".8"/>
  <g fill="#e45f48"><circle cx="85" cy="177" r="7"/><circle cx="115" cy="168" r="7"/><circle cx="145" cy="160" r="7"/><circle cx="655" cy="160" r="7"/><circle cx="685" cy="168" r="7"/><circle cx="715" cy="177" r="7"/></g>
</svg>

